<svg width="37" height="38" viewBox="0 0 37 38" fill="none" xmlns="http://www.w3.org/2000/svg">
<path d="M3.13713 28.5262C3.04427 28.607 3.15213 29.7435 3.37685 31.0518C3.60158 32.36 3.79182 33.4523 3.79978 33.4793C3.83915 33.6135 8.9003 34.4461 9.00955 34.3369C9.07903 34.2666 9.24428 33.7612 9.37678 33.2138C9.82137 31.3768 11.3463 28.6568 12.6786 27.3245L13.9285 26.0746L13.3272 28.4918C12.6437 31.2398 12.477 32.6322 12.63 34.3157L12.7366 35.49L13.7107 35.5141C14.2464 35.5274 15.4571 35.7315 16.4011 35.9677L18.1174 36.3971L17.6781 35.1348C16.1738 30.8129 16.6691 25.5063 18.9365 21.6506C20.1879 19.5227 25.4403 14.5315 28.6976 12.3751C29.3717 11.9289 29.5191 11.6304 29.7694 10.2052C29.9291 9.29624 30.2073 8.19597 30.3877 7.76006C30.8053 6.75087 30.6618 6.62383 29.6392 7.09766C29.1857 7.30781 28.075 7.57971 27.1709 7.70191C25.7847 7.88926 25.4656 8.03047 25.1349 8.60312C24.3667 9.93292 20.6005 14.5714 18.9621 16.2054C17.0469 18.1155 15.4673 19.1022 12.9622 19.9534C10.5352 20.778 6.56819 20.741 3.45325 19.8646L1.0412 19.186L1.29773 19.9911C1.43884 20.4339 1.69699 21.7324 1.87139 22.8766L2.18852 24.957L4.1766 24.8867C5.27006 24.8481 7.33372 24.5066 8.76254 24.1279L11.3604 23.4394L10.2393 24.5607C8.89619 25.9041 6.87974 27.1275 4.81823 27.8496C3.9865 28.1409 3.2301 28.4455 3.13713 28.5262Z" fill="white"/>
<path d="M0.65969 6.40834C-0.134527 8.75777 -0.0643787 10.4997 0.904597 12.4909C1.67546 14.075 3.89424 16.356 5.52427 17.2402C9.52704 19.4113 14.2277 18.2516 17.9665 14.1705C19.4023 12.6032 19.7295 12.0856 20.2463 10.5646C20.5782 9.58779 20.8494 7.98716 20.8489 7.00765C20.8479 5.09078 20.0604 2.36929 19.1354 1.08637L18.5627 0.291978L18.5447 3.75994C18.5153 9.42565 17.0197 12.7959 13.7343 14.6002C11.9047 15.605 9.91251 15.8189 8.03727 15.2119C2.98928 13.5778 0.964667 7.85991 4.25737 4.53673C5.87369 2.90547 8.02191 2.53779 9.83809 3.58155C10.8162 4.14365 11.8602 5.58754 11.7197 6.18388C11.6807 6.34923 11.1516 6.46734 10.5438 6.44634C9.31962 6.40405 8.76899 6.8037 8.38444 8.01353C7.82134 9.78517 9.82378 11.7192 11.6404 11.1582C12.9875 10.7422 14.3614 9.26005 14.689 7.86962C15.387 4.90724 12.2685 1.18922 8.6793 0.704367C7.97082 0.608671 6.78223 0.790055 5.69333 1.16004C4.16844 1.67817 3.68581 1.97698 2.61988 3.0626C1.54808 4.15422 1.24935 4.66406 0.65969 6.40834Z" fill="white"/>
<path d="M19.8094 23.9936C18.7346 26.9195 18.7972 29.0697 20.0309 31.6042C20.817 33.2191 23.0219 35.489 24.676 36.3861C26.6276 37.4447 28.5833 37.5567 30.9783 36.7471C32.7614 36.1443 33.2342 35.8656 34.326 34.7737C36.645 32.4548 37.3443 29.0192 36.0013 26.5432C34.3339 23.4692 31.4384 21.9428 29.005 22.8552C27.6425 23.3661 27.0066 23.9719 26.4378 25.3007C25.8336 26.7122 26.3024 28.0672 27.6457 28.7916C28.3781 29.1865 28.8029 29.2186 29.5024 28.9317C30.6229 28.472 31.168 27.6151 30.9633 26.6348C30.821 25.9528 30.8577 25.8918 31.4276 25.8636C32.8126 25.7952 34.3251 27.6601 34.3991 29.5272C34.5558 33.4834 29.8035 36.049 26.0699 34.0239C23.3464 32.5467 21.9903 30.3582 21.9889 27.4379C21.9878 25.2464 22.7204 23.6005 24.4802 21.8407C26.2534 20.0675 30.0403 18.7013 33.8977 18.4432C36.6131 18.2614 36.5938 18.276 35.0411 17.5778C31.8414 16.1389 28.1922 16.2251 25.3104 17.8078C23.2507 18.9389 20.5511 21.9747 19.8094 23.9936Z" fill="white"/>
</svg>
