<svg width="208" height="49" viewBox="0 0 208 49" fill="none" xmlns="http://www.w3.org/2000/svg">
<g clip-path="url(#clip0_48_114)">
<mask id="mask0_48_114" style="mask-type:luminance" maskUnits="userSpaceOnUse" x="-251" y="-294" width="501" height="501">
<path d="M-250.38 -293.938H249.62V206.062H-250.38V-293.938Z" fill="white"/>
</mask>
<g mask="url(#mask0_48_114)">
<path d="M206.759 27.1474C175.916 12.3654 140.553 19.0894 108.592 26.1264C89.2358 30.3874 69.7008 35.0024 49.8168 35.7104C35.7488 36.2114 7.35981 36.4774 2.66981 18.8064C-0.0281866 8.63841 9.15282 -0.235589 19.1408 2.91141C24.2768 4.52941 28.2508 9.63641 25.6128 15.0944C23.3378 19.8024 15.1728 20.6114 14.4968 14.3244C14.3748 13.1854 12.7738 13.1484 12.6968 14.3244C12.3088 20.2104 18.3278 22.4614 23.2658 20.3864C28.9368 18.0034 30.1768 10.2434 26.7468 5.53641C22.8958 0.252411 14.8068 -1.31259 8.93881 1.11441C2.42581 3.80941 -0.733188 11.1114 0.143812 17.8594C2.80381 38.3234 33.7468 38.8954 48.8588 38.4694C74.6648 37.7424 99.4818 30.2954 124.629 25.2814C151.611 19.9014 180.339 17.4194 206.456 27.8674C206.867 28.0314 207.16 27.3394 206.759 27.1474Z" fill="#222221"/>
</g>
<mask id="mask1_48_114" style="mask-type:luminance" maskUnits="userSpaceOnUse" x="-251" y="-294" width="501" height="501">
<path d="M-250.38 -293.938H249.62V206.062H-250.38V-293.938Z" fill="white"/>
</mask>
<g mask="url(#mask1_48_114)">
<path d="M181.022 19.986C155.847 15.466 131.039 20.92 106.264 25.317C93.1727 27.64 79.4657 30.279 66.1067 29.747C58.8507 29.459 49.2077 27.268 46.7747 19.248C45.4287 14.813 47.4357 10.058 52.0647 8.68102C57.5147 7.05902 63.8347 13.168 58.7347 17.851C57.6367 18.859 59.2877 20.514 60.3727 19.488C63.6977 16.341 63.5947 10.972 59.9417 8.01002C56.0257 4.83402 49.8777 6.22102 46.7117 9.78902C43.0967 13.862 43.6067 19.994 46.6757 24.213C50.8457 29.947 58.4607 31.803 65.1507 32.139C83.9077 33.083 103.109 28.221 121.425 24.854C140.979 21.258 161.026 18.284 180.892 20.944C181.433 21.016 181.562 20.083 181.022 19.986Z" fill="#222221"/>
</g>
<mask id="mask2_48_114" style="mask-type:luminance" maskUnits="userSpaceOnUse" x="-251" y="-294" width="501" height="501">
<path d="M-250.38 -293.938H249.62V206.062H-250.38V-293.938Z" fill="white"/>
</mask>
<g mask="url(#mask2_48_114)">
<path d="M206.962 27.4456C194.647 21.3896 178.785 19.8676 165.27 20.9066C154.929 21.7006 136.842 23.0356 133.812 35.5226C131.654 44.4166 141.696 52.9936 149.342 46.0266C155.888 40.0616 148.205 30.2146 140.99 35.3136C140.162 35.8996 140.875 37.1776 141.795 36.6896C145.04 34.9696 148.648 36.7476 149.489 40.2816C150.477 44.4336 144.511 46.0006 141.796 45.4816C135.128 44.2066 135.02 36.7486 138.302 32.3206C143.134 25.8016 154.249 24.6866 161.766 23.8126C168.741 23.0016 175.861 22.9156 182.86 23.4626C191.099 24.1066 198.659 26.3596 206.637 28.2166C207.082 28.3206 207.409 27.6656 206.962 27.4456Z" fill="#222221"/>
</g>
</g>
<defs>
<clipPath id="clip0_48_114">
<rect width="207.176" height="48.5767" fill="white"/>
</clipPath>
</defs>
</svg>
