<svg width="173" height="9" viewBox="0 0 173 9" fill="none" xmlns="http://www.w3.org/2000/svg">
<path d="M82.121 6.09168C82.7447 7.37248 83.9578 8.30484 85.2891 8.52655C85.6307 8.58349 85.9367 8.63588 85.9691 8.64288C86.2086 8.69525 87.6202 8.36562 88.0116 8.16596C91.2343 6.52187 91.2221 1.91442 87.9908 0.327637C87.3899 0.0325267 87.2011 0 86.0869 0C84.9689 0 84.7852 0.0318702 84.1741 0.33197C83.3123 0.75516 82.5872 1.48116 82.1425 2.36603C81.8239 2.99989 81.7924 3.16849 81.7927 4.24042C81.793 5.28866 81.8292 5.49243 82.121 6.09168Z" fill="white"/>
<path d="M74.187 3.60376C73.8833 4.66276 74.3296 5.75327 75.2928 6.30573C76.97 7.26765 78.9018 6.16211 78.9018 4.24042C78.9018 3.1952 78.3847 2.39398 77.4611 2.00806C76.1511 1.46071 74.5824 2.22524 74.187 3.60376Z" fill="white"/>
<path d="M93.9984 2.44977C92.7583 3.60657 93.1328 5.79374 94.6864 6.46747C96.5052 7.25619 98.5047 5.52743 97.9889 3.61212C97.5321 1.91559 95.2757 1.25835 93.9984 2.44977Z" fill="white"/>
<path d="M0.126986 3.59613C-0.217664 4.24797 0.175864 5.31487 0.866305 5.60046C1.55268 5.88436 2.46621 5.52683 2.74442 4.86517L2.90079 4.49329L6.12424 4.52185C7.89711 4.5376 21.0353 4.70323 35.3202 4.88989C60.2816 5.21606 61.3041 5.22109 61.5844 5.01874C62.1135 4.63646 62.1117 3.84123 61.5804 3.46161C61.3059 3.26549 60.0766 3.27157 35.6142 3.59088C21.4912 3.77524 8.35473 3.94382 6.42191 3.96552L2.90769 4.00488L2.74765 3.62439C2.55589 3.16849 1.94727 2.76917 1.44327 2.76855C1.01025 2.76803 0.343056 3.18748 0.126986 3.59613Z" fill="white"/>
<path d="M67.0051 4.24042C67.0051 4.84593 67.2417 5.28778 67.6992 5.53644C68.1098 5.75966 68.5906 5.75403 69.0832 5.52026C70.0984 5.03849 70.0801 3.43368 69.0538 2.94666C68.5887 2.72594 68.2865 2.72163 67.791 2.92865C67.2699 3.14637 67.0051 3.58842 67.0051 4.24042Z" fill="white"/>
<path d="M103.12 2.94666C102.104 3.42891 102.074 5.02391 103.072 5.51575C104.11 6.02751 105.169 5.41261 105.169 4.29761C105.169 3.1189 104.16 2.4534 103.12 2.94666Z" fill="white"/>
<path d="M169.78 4.85669C169.868 5.06587 170.115 5.34699 170.329 5.48138C171.541 6.24139 173.039 4.8726 172.394 3.59619C172.188 3.1906 171.52 2.76802 171.084 2.76855C170.574 2.76917 169.969 3.17088 169.774 3.63886L169.609 4.0332L166.159 3.9798C164.261 3.95043 151.048 3.77549 136.795 3.591C112.143 3.27188 110.868 3.26551 110.595 3.46069C110.025 3.86804 110.033 4.67766 110.611 5.05011C110.85 5.204 113.905 5.18522 136.913 4.88855C151.23 4.70394 164.446 4.53565 166.282 4.51465L169.62 4.47632L169.78 4.85669Z" fill="white"/>
</svg>
