<svg width="442" height="52" viewBox="0 0 442 52" fill="none" xmlns="http://www.w3.org/2000/svg">
<g clip-path="url(#clip0_33_159)">
<mask id="mask0_33_159" style="mask-type:luminance" maskUnits="userSpaceOnUse" x="-46" y="-168" width="534" height="534">
<path d="M-45.1941 365.366H487.193V-167.914H-45.1941V365.366Z" fill="white"/>
</mask>
<g mask="url(#mask0_33_159)">
<path d="M0.766282 22.1422C52.7656 42.9795 106.15 16.0233 158.379 11.435C171.118 10.3151 184.38 10.2745 196.917 13.1105C205.69 15.0954 215.547 19.3062 219.23 28.213C225.45 43.2547 209.016 58.8819 195.019 48.7976C189.168 44.5826 187.861 34.7404 194.724 30.6437C199.934 27.5336 207.518 29.8587 207.076 36.5866C206.993 37.8376 205.289 37.8035 205.159 36.5866C204.671 32.0324 199.617 30.4027 195.942 32.7299C190.239 36.3391 192.213 44.3138 197.199 47.3983C205.137 52.3098 215.454 48.3038 217.802 39.2658C220.462 29.0193 211.797 21.2078 203.128 17.9154C194.482 14.6325 184.871 13.887 175.706 13.7057C135.806 12.9175 97.9334 28.6674 58.427 31.771C38.6137 33.3272 18.5587 31.6068 0.443655 22.9101C0.020939 22.7074 0.323335 21.964 0.766282 22.1422Z" fill="#222221"/>
</g>
<mask id="mask1_33_159" style="mask-type:luminance" maskUnits="userSpaceOnUse" x="-46" y="-168" width="534" height="534">
<path d="M-45.1941 365.366H487.193V-167.914H-45.1941V365.366Z" fill="white"/>
</mask>
<g mask="url(#mask1_33_159)">
<path d="M182.787 37.2844C175.952 39.3717 175.029 27.5521 182.339 26.7457C186.396 26.2978 188.933 27.936 190.547 31.6071C191.519 33.8181 191.487 35.851 191.835 38.1931C192.23 40.8585 193.328 43.3393 194.092 45.9107C194.346 46.7629 193.206 47.4413 192.591 46.7864C190.166 44.2043 189.265 40.5833 188.925 37.1362C188.638 34.2223 188.149 30.3774 184.808 29.4409C183.854 29.1732 182.798 29.1914 181.862 29.4569C178.476 30.4168 177.561 36.7095 182.713 36.7447C183.026 36.7469 183.083 37.1938 182.787 37.2844Z" fill="#222221"/>
</g>
<mask id="mask2_33_159" style="mask-type:luminance" maskUnits="userSpaceOnUse" x="-46" y="-168" width="534" height="534">
<path d="M-45.1941 365.366H487.193V-167.914H-45.1941V365.366Z" fill="white"/>
</mask>
<g mask="url(#mask2_33_159)">
<path d="M27.9856 29.5264C49.1395 32.3634 70.4839 29.1904 91.3046 25.3561C110.807 21.764 131.252 16.5794 151.225 17.5852C158.348 17.9446 166.455 19.9231 170.897 26.0398C174.163 30.5396 174.707 37.0787 170.858 41.4238C167.487 45.2293 160.94 46.7086 156.77 43.3213C152.881 40.1621 152.771 34.4357 156.312 31.0793C157.466 29.985 159.226 31.7491 158.055 32.8252C153.279 37.2184 158.327 43.6156 163.915 42.8008C169.462 41.9934 172.371 36.5518 170.791 31.3342C168.319 23.1718 158.691 20.5833 151.225 20.1854C136.683 19.409 121.7 22.3314 107.448 24.8623C81.0657 29.5477 54.655 35.369 27.8472 30.5481C27.2786 30.4457 27.4042 29.4485 27.9856 29.5264Z" fill="#222221"/>
</g>
<mask id="mask3_33_159" style="mask-type:luminance" maskUnits="userSpaceOnUse" x="-46" y="-168" width="534" height="534">
<path d="M-45.1941 365.366H487.193V-167.914H-45.1941V365.366Z" fill="white"/>
</mask>
<g mask="url(#mask3_33_159)">
<path d="M0.5725 21.7692C8.76062 23.6783 16.5111 26.0226 24.958 26.7585C32.7117 27.4347 40.6176 27.375 48.35 26.4663C56.0377 25.5629 67.0081 24.4281 72.53 18.4522C76.6081 14.0387 77.1064 6.35951 70.8647 3.55659C67.565 2.07408 63.3847 3.73898 62.207 7.01865C60.5225 11.7126 65.3428 15.0008 69.6147 12.7322C70.5932 12.2128 71.3545 13.5748 70.4718 14.1998C63.1387 19.3907 54.892 9.85676 61.0815 3.22276C68.8619 -5.11773 80.4679 4.26159 78.1148 13.9769C74.9513 27.0358 56.3752 28.5557 45.5529 29.4857C30.8856 30.7464 13.6128 29.185 0.226448 22.5915C-0.245248 22.359 0.0933506 21.6572 0.5725 21.7692Z" fill="#222221"/>
</g>
<mask id="mask4_33_159" style="mask-type:luminance" maskUnits="userSpaceOnUse" x="-46" y="-168" width="534" height="534">
<path d="M-45.1941 365.366H487.193V-167.914H-45.1941V365.366Z" fill="white"/>
</mask>
<g mask="url(#mask4_33_159)">
<path d="M441.556 22.9097C408.715 38.6755 371.062 31.504 337.03 23.9986C316.421 19.454 295.62 14.5318 274.448 13.7767C259.469 13.2424 229.241 12.9587 224.247 31.8058C221.375 42.6506 231.15 52.1153 241.785 48.7588C247.254 47.0331 251.485 41.5862 248.676 35.7649C246.254 30.7435 237.56 29.8807 236.84 36.5861C236.71 37.801 235.006 37.8404 234.924 36.5861C234.511 30.3084 240.92 27.9076 246.177 30.1207C252.216 32.6623 253.536 40.9388 249.884 45.9591C245.783 51.5948 237.17 53.2639 230.922 50.6754C223.987 47.801 220.624 40.013 221.558 32.8159C224.39 10.9898 257.337 10.3797 273.428 10.8341C300.906 11.6095 327.33 19.5521 354.106 24.8999C382.836 30.6379 413.425 33.2851 441.234 22.1417C441.671 21.9668 441.983 22.7049 441.556 22.9097Z" fill="#222221"/>
</g>
<mask id="mask5_33_159" style="mask-type:luminance" maskUnits="userSpaceOnUse" x="-46" y="-168" width="534" height="534">
<path d="M-45.1941 365.366H487.193V-167.914H-45.1941V365.366Z" fill="white"/>
</mask>
<g mask="url(#mask5_33_159)">
<path d="M259.286 36.7442C263.733 36.7143 263.76 31.2717 261.021 29.6825C260.038 29.1119 258.29 29.1471 257.192 29.4404C253.832 30.3374 253.371 34.2239 253.075 37.1367C252.723 40.5891 251.841 44.1973 249.409 46.7859C248.794 47.4397 247.654 46.7635 247.907 45.9102C248.569 43.6843 249.513 41.5224 250 39.2485C250.527 36.7869 250.273 34.4671 251.235 32.1036C252.827 28.1893 255.332 26.2674 259.659 26.7452C266.949 27.5494 266.062 39.3754 259.212 37.2839C258.919 37.1943 258.971 36.7463 259.286 36.7442Z" fill="#222221"/>
</g>
<mask id="mask6_33_159" style="mask-type:luminance" maskUnits="userSpaceOnUse" x="-46" y="-168" width="534" height="534">
<path d="M-45.1941 365.366H487.193V-167.914H-45.1941V365.366Z" fill="white"/>
</mask>
<g mask="url(#mask6_33_159)">
<path d="M414.152 30.5477C387.346 35.3686 360.931 29.5515 334.552 24.8619C320.613 22.3843 306.018 19.5696 291.793 20.137C284.067 20.4442 273.8 22.781 271.209 31.3348C269.776 36.065 271.913 41.1365 276.842 42.6052C282.645 44.3351 289.374 37.8195 283.944 32.8248C282.775 31.7497 284.533 29.9846 285.688 31.0789C289.228 34.4353 289.119 40.1617 285.229 43.3208C281.059 46.7082 274.513 45.2289 271.142 41.4234C267.293 37.0793 267.836 30.5392 271.104 26.0394C275.544 19.9237 283.652 17.9442 290.775 17.5858C310.747 16.579 331.192 21.7646 350.695 25.3557C371.515 29.191 392.861 32.363 414.014 29.5259C414.59 29.4492 414.727 30.4443 414.152 30.5477Z" fill="#222221"/>
</g>
<mask id="mask7_33_159" style="mask-type:luminance" maskUnits="userSpaceOnUse" x="-46" y="-168" width="534" height="534">
<path d="M-45.1941 365.366H487.193V-167.914H-45.1941V365.366Z" fill="white"/>
</mask>
<g mask="url(#mask7_33_159)">
<path d="M441.773 22.5916C428.66 29.0507 411.771 30.674 397.38 29.5658C386.37 28.719 367.111 27.2951 363.885 13.977C361.587 4.49102 372.279 -4.65686 380.421 2.77386C387.391 9.13588 379.21 19.6383 371.528 14.1999C370.646 13.5749 371.405 12.2118 372.385 12.7323C375.84 14.5668 379.682 12.6705 380.577 8.90124C381.629 4.47289 375.277 2.80159 372.386 3.35513C365.286 4.715 365.171 12.6694 368.665 17.3921C373.81 24.345 385.645 25.5342 393.649 26.4664C401.076 27.3314 408.657 27.4231 416.11 26.8397C424.882 26.1528 432.932 23.7499 441.427 21.7693C441.901 21.6584 442.249 22.357 441.773 22.5916Z" fill="#222221"/>
</g>
</g>
<defs>
<clipPath id="clip0_33_159">
<rect width="442" height="52" fill="white" transform="matrix(1 0 0 -1 0 52)"/>
</clipPath>
</defs>
</svg>
