<?xml version="1.0" encoding="UTF-8" standalone="no"?>
<svg
   width="37"
   height="38"
   viewBox="0 0 37 38"
   fill="none"
   version="1.1"
   id="svg3"
   sodipodi:docname="historiska.svg"
   inkscape:version="1.3 (0e150ed6c4, 2023-07-21)"
   xmlns:inkscape="http://www.inkscape.org/namespaces/inkscape"
   xmlns:sodipodi="http://sodipodi.sourceforge.net/DTD/sodipodi-0.dtd"
   xmlns="http://www.w3.org/2000/svg"
   xmlns:svg="http://www.w3.org/2000/svg">
  <defs
     id="defs3" />
  <sodipodi:namedview
     id="namedview3"
     pagecolor="#ffffff"
     bordercolor="#000000"
     borderopacity="0.25"
     inkscape:showpageshadow="2"
     inkscape:pageopacity="0.0"
     inkscape:pagecheckerboard="0"
     inkscape:deskcolor="#d1d1d1"
     inkscape:zoom="10.223684"
     inkscape:cx="42.841699"
     inkscape:cy="32.815959"
     inkscape:window-width="1920"
     inkscape:window-height="991"
     inkscape:window-x="-9"
     inkscape:window-y="-9"
     inkscape:window-maximized="1"
     inkscape:current-layer="svg3" />
  <g
     id="g3"
     transform="rotate(90,18.397585,18.785193)">
    <path
       d="m 3.13713,28.5262 c -0.09286,0.0808 0.015,1.2173 0.23972,2.5256 0.22473,1.3082 0.41497,2.4005 0.42293,2.4275 0.03937,0.1342 5.10052,0.9668 5.20977,0.8576 0.06948,-0.0703 0.23473,-0.5757 0.36723,-1.1231 0.44459,-1.837 1.96952,-4.557 3.30182,-5.8893 l 1.2499,-1.2499 -0.6013,2.4172 c -0.6835,2.748 -0.8502,4.1404 -0.6972,5.8239 l 0.1066,1.1743 0.9741,0.0241 c 0.5357,0.0133 1.7464,0.2174 2.6904,0.4536 l 1.7163,0.4294 -0.4393,-1.2623 c -1.5043,-4.3219 -1.009,-9.6285 1.2584,-13.4842 1.2514,-2.1279 6.5038,-7.1191 9.7611,-9.2755 0.6741,-0.4462 0.8215,-0.7447 1.0718,-2.1699 0.1597,-0.90896 0.4379,-2.00923 0.6183,-2.44514 0.4176,-1.00919 0.2741,-1.13623 -0.7485,-0.6624 -0.4535,0.21015 -1.5642,0.48205 -2.4683,0.60425 -1.3862,0.18735 -1.7053,0.32856 -2.036,0.90121 -0.7682,1.3298 -4.5344,5.96828 -6.1728,7.60228 -1.9152,1.9101 -3.4948,2.8968 -5.9999,3.748 -2.427,0.8246 -6.39401,0.7876 -9.50895,-0.0888 L 1.0412,19.186 1.29773,19.9911 c 0.14111,0.4428 0.39926,1.7413 0.57366,2.8855 L 2.18852,24.957 4.1766,24.8867 c 1.09346,-0.0386 3.15712,-0.3801 4.58594,-0.7588 l 2.59786,-0.6885 -1.1211,1.1213 C 8.89619,25.9041 6.87974,27.1275 4.81823,27.8496 3.9865,28.1409 3.2301,28.4455 3.13713,28.5262 Z"
       fill="white"
       id="path1"
       style="fill:#3d314a;fill-opacity:1" />
    <path
       d="m 0.65969,6.40834 c -0.794217,2.34943 -0.7240687,4.09136 0.244907,6.08256 0.770863,1.5841 2.989643,3.8651 4.619673,4.7493 4.00277,2.1711 8.70343,1.0114 12.44223,-3.0697 1.4358,-1.5673 1.763,-2.0849 2.2798,-3.6059 C 20.5782,9.58779 20.8494,7.98716 20.8489,7.00765 20.8479,5.09078 20.0604,2.36929 19.1354,1.08637 L 18.5627,0.291978 18.5447,3.75994 C 18.5153,9.42565 17.0197,12.7959 13.7343,14.6002 11.9047,15.605 9.91251,15.8189 8.03727,15.2119 2.98928,13.5778 0.964667,7.85991 4.25737,4.53673 5.87369,2.90547 8.02191,2.53779 9.83809,3.58155 10.8162,4.14365 11.8602,5.58754 11.7197,6.18388 11.6807,6.34923 11.1516,6.46734 10.5438,6.44634 9.31962,6.40405 8.76899,6.8037 8.38444,8.01353 7.82134,9.78517 9.82378,11.7192 11.6404,11.1582 12.9875,10.7422 14.3614,9.26005 14.689,7.86962 15.387,4.90724 12.2685,1.18922 8.6793,0.704367 7.97082,0.608671 6.78223,0.790055 5.69333,1.16004 4.16844,1.67817 3.68581,1.97698 2.61988,3.0626 1.54808,4.15422 1.24935,4.66406 0.65969,6.40834 Z"
       fill="white"
       id="path2"
       style="fill:#3d314a;fill-opacity:1" />
    <path
       d="m 19.8094,23.9936 c -1.0748,2.9259 -1.0122,5.0761 0.2215,7.6106 0.7861,1.6149 2.991,3.8848 4.6451,4.7819 1.9516,1.0586 3.9073,1.1706 6.3023,0.361 1.7831,-0.6028 2.2559,-0.8815 3.3477,-1.9734 2.319,-2.3189 3.0183,-5.7545 1.6753,-8.2305 -1.6674,-3.074 -4.5629,-4.6004 -6.9963,-3.688 -1.3625,0.5109 -1.9984,1.1167 -2.5672,2.4455 -0.6042,1.4115 -0.1354,2.7665 1.2079,3.4909 0.7324,0.3949 1.1572,0.427 1.8567,0.1401 1.1205,-0.4597 1.6656,-1.3166 1.4609,-2.2969 -0.1423,-0.682 -0.1056,-0.743 0.4643,-0.7712 1.385,-0.0684 2.8975,1.7965 2.9715,3.6636 0.1567,3.9562 -4.5956,6.5218 -8.3292,4.4967 -2.7235,-1.4772 -4.0796,-3.6657 -4.081,-6.586 -0.0011,-2.1915 0.7315,-3.8374 2.4913,-5.5972 1.7732,-1.7732 5.5601,-3.1394 9.4175,-3.3975 2.7154,-0.1818 2.6961,-0.1672 1.1434,-0.8654 -3.1997,-1.4389 -6.8489,-1.3527 -9.7307,0.23 -2.0597,1.1311 -4.7593,4.1669 -5.501,6.1858 z"
       fill="white"
       id="path3"
       style="fill:#3d314a;fill-opacity:1" />
  </g>
</svg>
